
<?xml version="1.0" encoding="utf-8"?>
<!-- Generator: Adobe Illustrator 21.1.0, SVG Export Plug-In . SVG Version: 6.00 Build 0)  -->
<svg version="1.1" id="Layer_1" xmlns="http://www.w3.org/2000/svg" xmlns:xlink="http://www.w3.org/1999/xlink" x="0px" y="0px"
	 viewBox="0 0 100 100" style="enable-background:new 0 0 100 100;" xml:space="preserve">
<style type="text/css">
	.st0{fill-rule:evenodd;clip-rule:evenodd;fill:#E5E4E8;}
	.st1{fill:#2B2C33;}
	.st2{fill:none;}
</style>
<circle class="st0" cx="50" cy="50" r="50"/>
<path class="st1" d="M66,65h-4c0-1.7-0.3-3.2-0.9-4.7s-1.5-2.7-2.6-3.8c-1.1-1.1-2.4-1.9-3.8-2.6S51.7,53,50,53
	c-1.7,0-3.2,0.3-4.7,0.9s-2.7,1.5-3.8,2.6c-1.1,1.1-1.9,2.4-2.6,3.8S38,63.3,38,65h-4c0-1.5,0.2-2.9,0.6-4.2
	c0.4-1.4,0.9-2.6,1.6-3.8c0.7-1.2,1.5-2.3,2.5-3.2c1-1,2.1-1.8,3.2-2.5c1.2-0.7,2.5-1.2,3.8-1.6c1.4-0.4,2.8-0.6,4.2-0.6
	c1.5,0,2.9,0.2,4.2,0.6c1.4,0.4,2.6,0.9,3.8,1.6c1.2,0.7,2.3,1.5,3.2,2.5c1,1,1.8,2.1,2.5,3.2c0.7,1.2,1.2,2.5,1.6,3.8
	C65.8,62.1,66,63.5,66,65L66,65z M46.9,31.6c-1,0.4-1.8,1-2.5,1.7s-1.3,1.6-1.7,2.5c-0.4,1-0.6,2-0.6,3.1c0,1.1,0.2,2.1,0.6,3.1
	c0.4,1,1,1.8,1.7,2.5c0.7,0.7,1.6,1.3,2.5,1.7s2,0.6,3.1,0.6c1.1,0,2.1-0.2,3.1-0.6s1.8-1,2.5-1.7c0.7-0.7,1.3-1.6,1.7-2.5
	c0.4-1,0.6-2,0.6-3.1c0-1.1-0.2-2.1-0.6-3.1c-0.4-1-1-1.8-1.7-2.6s-1.6-1.3-2.5-1.7S51.1,31,50,31S47.9,31.2,46.9,31.6z M48.5,42.7
	c-0.5-0.2-0.9-0.5-1.3-0.9c-0.4-0.4-0.6-0.8-0.9-1.3c-0.2-0.5-0.3-1-0.3-1.5c0-0.5,0.1-1.1,0.3-1.5c0.2-0.5,0.5-0.9,0.9-1.3
	c0.4-0.4,0.8-0.7,1.3-0.9s1-0.3,1.6-0.3c0.5,0,1.1,0.1,1.5,0.3s0.9,0.5,1.3,0.9c0.4,0.4,0.7,0.8,0.9,1.3c0.2,0.5,0.3,1,0.3,1.5
	c0,0.5-0.1,1.1-0.3,1.5c-0.2,0.5-0.5,0.9-0.9,1.3c-0.4,0.4-0.8,0.6-1.3,0.9S50.6,43,50,43C49.5,43,48.9,42.9,48.5,42.7z"/>
<rect x="-922.2" y="-578.8" class="st2" width="1920" height="1300"/>
</svg>
