<?xml version="1.0" encoding="utf-8"?>
<!DOCTYPE svg PUBLIC "-//W3C//DTD SVG 1.1//EN" "http://www.w3.org/Graphics/SVG/1.1/DTD/svg11.dtd">
<svg version="1.1" id="Layer_1" xmlns="http://www.w3.org/2000/svg" xmlns:xlink="http://www.w3.org/1999/xlink" x="0px" y="0px"
     width="90px" height="40px" viewBox="0 0 90 40" enable-background="new 0 0 90 40" xml:space="preserve">
<g>
    <path fill="#00AFF0" d="M74.812,13.856c-2.357,0-3.777,1.467-4.295,3.781h8.273C78.529,15.454,76.916,13.856,74.812,13.856z"/>
    <path fill="#00AFF0" d="M57.847,14.248c-2.745-0.033-3.779,2.477-3.779,5.182c0,2.444,0.904,5.278,3.779,5.278
	c3.006-0.032,3.749-3.063,3.749-5.278C61.596,16.627,60.368,14.28,57.847,14.248z"/>
    <path fill="#00AFF0" d="M90,12.505c0-2.757-2.215-4.993-4.949-4.993c-1.412,0-2.684,0.599-3.584,1.554
	c-2.092-1.468-4.631-2.33-7.373-2.33c-2.77,0-5.332,0.884-7.433,2.378c-0.949-0.883-2.212-1.425-3.604-1.425
	c-1.033,0-1.997,0.302-2.812,0.817c-1.938-3.477-5.625-5.829-9.861-5.829c-3.868,0-7.278,1.957-9.322,4.943
	c-1.708-1.769-4.091-2.87-6.731-2.87c-1.747,0-3.374,0.488-4.775,1.324C29.523,2.715,26.815,0,23.475,0
	c-3.359,0-6.081,2.746-6.081,6.133c0,0.079,0.008,0.156,0.011,0.233c-0.651-0.099-1.317-0.151-1.998-0.151
	c-1.978,0-3.851,0.441-5.538,1.225C8.925,6.928,7.847,6.637,6.701,6.637C3.001,6.637,0,9.663,0,13.394
	c0,1.978,0.849,3.75,2.189,4.987c-0.038,0.404-0.058,0.812-0.058,1.227c0,7.395,5.943,13.391,13.275,13.391
	c2.852,0,5.489-0.909,7.652-2.45c1.947,2.687,5.085,4.441,8.638,4.441c0.087,0,0.171-0.011,0.257-0.013
	C32.975,37.9,35.729,40,38.978,40c3.289,0,6.076-2.153,7.064-5.137c1.127,2.155,3.368,3.627,5.95,3.627
	c3.233,0,5.929-2.301,6.577-5.366c0.467,0.065,0.94,0.11,1.425,0.11c2.632,0,5.024-1.006,6.843-2.649
	c2.068,1.417,4.565,2.246,7.256,2.246c7.144,0,12.937-5.842,12.937-13.048c0-0.891-0.09-1.761-0.26-2.602
	C88.654,16.477,90,14.652,90,12.505z M81.18,20.374H70.514c0,2.511,1.613,4.335,4.359,4.335c3.555,0,3.555-2.346,5.461-2.346
	c1.129,0,1.939,0.978,1.939,1.858c0,2.868-4.557,4.204-7.4,4.204c-5.364,0-8.011-2.98-8.809-6.322
	c-0.711,3.504-2.983,6.322-7.026,6.322c-2.165,0-3.779-0.881-4.651-2.412h-0.066v6.356c0,1.564-0.937,2.378-2.358,2.378
	s-2.359-0.814-2.359-2.378V14.637l-5.3,15.157c-1.129,3.258-2.423,4.953-5.396,4.953c-2.099,0-2.972-1.041-2.972-2.183
	c0-1.271,0.904-1.922,2.164-1.922h0.485c0.613,0,1.293-0.032,1.648-1.5l-4.911-14.11c-0.172-0.509-0.306-0.893-0.401-1.214
	c-0.107,0.142-0.232,0.274-0.377,0.431l-3.49,3.682l4.911,6.648c0.162,0.229,0.485,0.75,0.485,1.532
	c0,1.206-0.969,2.314-2.23,2.314c-1.163,0-1.775-0.587-2.132-1.108l-4.458-6.355l-1.649,1.466v3.618
	c0,1.564-0.935,2.379-2.358,2.379c-1.42,0-2.357-0.815-2.357-2.379v-1.75c-0.848,2.811-4.002,4.13-7.044,4.13
	c-4.264,0-7.818-1.923-7.818-4.269c0-1.044,0.582-1.988,1.906-1.988c2.037,0,2.231,2.934,5.719,2.934
	c1.681,0,2.747-0.751,2.747-1.728c0-1.206-1.034-1.403-2.713-1.827l-2.779-0.683c-2.745-0.686-4.878-1.826-4.878-5.021
	c0-3.877,3.813-5.312,7.075-5.312c3.587,0,7.206,1.435,7.206,3.618c0,1.107-0.742,2.086-1.971,2.086
	c-1.842,0-1.907-2.184-4.879-2.184c-1.648,0-2.715,0.455-2.715,1.465c0,1.109,1.067,1.37,2.522,1.696l1.969,0.456
	c2.264,0.522,4.888,1.423,5.655,3.687V6.491c0-1.564,0.937-2.379,2.357-2.379c1.423,0,2.358,0.815,2.358,2.379v10.82l5.236-5.866
	c0.485-0.522,1.099-0.913,1.808-0.913c0.77,0,1.584,0.497,1.98,1.225c0.384-0.739,1.147-1.225,2.03-1.225
	c1.26,0,2.133,0.716,2.423,1.792l3.039,11.112h0.064l2.876-10.787c0.323-1.206,0.969-2.119,2.261-2.119
	c1.117,0,1.761,0.556,2.101,1.13c0.29-0.737,0.919-1.13,1.938-1.13c1.391,0,2.135,0.783,2.135,2.249v0.75h0.064
	c0.776-2.019,2.682-2.998,4.975-2.998c3.368,0,6.374,2.125,7.181,6.582c0.92-4.027,3.99-6.582,8.623-6.582
	c5.428,0,8.529,3.878,8.529,7.789C83.246,19.95,82.762,20.373,81.18,20.374z M84.376,11.425h-0.89v2.442h-0.657v-2.442h-0.892
	v-0.552h2.438V11.425z M87.916,13.867h-0.611v-2.123h-0.01l-0.729,2.123h-0.502l-0.73-2.101h-0.008v2.101h-0.611v-2.994h0.92
	l0.695,2.059h0.008l0.658-2.059h0.92V13.867z"/>
</g>
</svg>
